<svg xmlns="http://www.w3.org/2000/svg" viewBox="0 0 659.47 657.39"><defs><style>.cls-1{fill:#ec6608;stroke:#ec6608;stroke-width:2px;}.cls-1,.cls-2,.cls-3{stroke-miterlimit:10;}.cls-2{fill:#26358c;stroke:#26358c;}.cls-2,.cls-3{stroke-width:10px;}.cls-3{fill:#009d3d;stroke:#009d3d;}</style></defs><title>rnbeach</title><g id="Palm_Tree" data-name="Palm Tree"><path class="cls-1" d="M190.43,164.51s2.8-24.84,2.21-33.87S188,104.38,184.6,97s-10.81-23.79-20.18-35.41-19-21.87-28.19-27c0,0,20.13,20.73,24,26.08,0,0-9.15-9.76-15.19-11.38,0,0,14.5,16.23,17.78,23.71,0,0-7.7-8.9-17.8-13.76,0,0,15.21,15.82,19.26,24.46,0,0-10-11.54-18-16.2a118.72,118.72,0,0,0-13-6.7,35.32,35.32,0,0,1,6.88,8c3.4,5.22,10.2,14.36,15,18.51S173.22,100,173.22,100s-9.72-5.83-18.23-8.1-17.3-4.38-23.67-3.68c0,0,9.61,2,12,4.87,0,0-25.85-2.94-47.06,2.79s14.53,7.6,14.53,7.6,10.54-6.67,14.58-7.87L111.6,105.7l12.72,8.73s6.81-3.7,13-7l5.45-2.87S129.4,115,128.22,116.67a22.34,22.34,0,0,0-2.13,4.83s15.4-7.76,20.64-12.12c0,0-8.48,13.33-12.57,14.28l12,4.23s11.11-3.7,16.43-6.11c0,0-11.82,7.88-13.37,10.1a5.9,5.9,0,0,1-4.23,2.35s17.27-4,20.8-6.44c0,0-6.17,9.15-11.89,9.9,0,0,12.85,2.23,18.76-.15l-5.94,3.82s2.71,1.08,4.1.85l4.78,3.2s-1.51.57-8.76,0c0,0,9.16,3,13.87,6S190.43,164.51,190.43,164.51Z" transform="translate(-37.42 100.22)"/><path class="cls-1" d="M191.46,165.58a.17.17,0,0,0-.21-.25l-24.4,11.57s-13.26,6.54-16.63,7.92-20.5,7.12-28,15.44-10.1,13.56-10.1,13.56a48.2,48.2,0,0,1,5.88-2.93s-13.17,11.36-15.11,15.94c0,0,2.55-1.24,5.78-2.54,0,0-9,9.47-11.25,13.37s-5.82,11-6.06,14.58c0,0,2.1-4.48,4.14-5.37a26.56,26.56,0,0,1-2.74,6.62A33.78,33.78,0,0,0,90,260a19.23,19.23,0,0,0-1.49,3.63,28.08,28.08,0,0,1-.65,4s0,.08,0,.11c-.4.89,2.36-2.88,3.3-5a10.93,10.93,0,0,1,1.84-3,30.58,30.58,0,0,1-2.45,7.65c-1.93,4.11-1.21,3.79-2,6.85s-.43,3.46-2.21,7.51c0,0,5.83-9.13,7.53-10,0,0-1.76,6.36-1.66,7.33a51.21,51.21,0,0,0,3.5-4.62c.8-1.38,2.5-3.18,3.14-4.92a22.11,22.11,0,0,1,3.06-6s-3.59,11.5-3,12.27a18.84,18.84,0,0,0,4.77-6.45A30.42,30.42,0,0,0,107,260.2c.92-4.14,3.72-12.38,3.72-12.38s1.09,6.7,1.62,8.1,1.35,5.05.7,6.37c0,0,2.37-.14,1.9-7.35s0-6.1.19-8.59c.25-2.87,1.39-8.33,1.39-8.33s3,21.27,3.42,21.32c0,0,1.38,0,1.55-8.71.19-9.78,2.52-17.32,3.05-18.38,0,0-1.15,6.77-1.2,8.32s-.47,5,.35,6.67a5.84,5.84,0,0,0,2.55,2.44,69.85,69.85,0,0,1,1-10.53c1-5.79,4.45-14.17,4.45-14.17a20.63,20.63,0,0,1,1.41,6.62c0,3.05-.27,7.78-.11,9s.87,5,1.49,6.09a14.86,14.86,0,0,0,1.78-6.66c0-3.66-.28-3.25.26-7.73s1-6.63.63-11.35,3.35-12.54,4.07-14.57c0,0-1.6,10.49-1.35,12.24s.12,9.21.7,11.1a18,18,0,0,0,2,4.43,40.55,40.55,0,0,0,1.91-10.52c0-5.82-.24-5.59,0-8a18.3,18.3,0,0,1,1.13-5.1c.56-1.47,3.51-7.34,3.51-7.34a43.08,43.08,0,0,1,1.89,8.9c.55,5.12.93,10.87,1.8,12.12,0,0,2.48-10.49,3.17-16.13.5-4.13-.27-4.85.43-7.93,1.06-4.63,5-11.92,5-11.92s.67.18.29,5.65,1.17,13.81,2.35,15.21c0,0,.42-9.43.21-12a21.52,21.52,0,0,1,1.1-7.27,48.6,48.6,0,0,1,2,10c.21,4.37,1.13,14.64.93,15.36,0,0,2.73-9.53,2.51-17.14s-.55-6.81-.55-6.81.32-3.45.78-4.05,1.19,3.62,1.19,3.62l.66,9,1.47-15s.49-6.23,1.4-6.95S178,184.2,178,184.2Z" transform="translate(-37.42 100.22)"/><path class="cls-1" d="M190.59,163.18a.2.2,0,0,0,.13-.37c-7.67-3.59-41.52-19.42-46.11-21.36A161,161,0,0,0,113,131.2c-17.49-3.95-23.58-4.89-30.31-5.12a63.76,63.76,0,0,0-7.57,0s16,3.8,17.65,5.23c0,0-8.61-1.18-14-1.38-3.55-.13-2.34.22-6.86.09-3.15-.09-8,0-10.57,1.28A55.69,55.69,0,0,1,53.11,134s12.22-.18,13.62.65A63.9,63.9,0,0,0,58.52,137c-3.61,1.38-13.33,5.44-17.08,9.39,0,0,9.11-2.79,11.05-3,0,0-9.05,5.59-11.31,8.32s-2.92,4.53-2.73,5.84a19.87,19.87,0,0,1,4.94-2.64A61.36,61.36,0,0,0,59.18,146c5.21-4.37,7.68-7.22,10.49-7.28a19.51,19.51,0,0,1-6.38,7.39c-4.52,3.11-9.22,9.23-9.22,9.23s1.77-.88,5.32-2.72a42.09,42.09,0,0,0,8.75-5.49c2.14-2,6.82-8.35,10.88-9.06,0,0-6.86,7.17-9.48,9.89s-6.65,7.4-8.8,10.06-3.8,5.11-3.8,5.11a16,16,0,0,0,4.38-1.89c3.57-2.48,5.44-6.56,8.54-9.42s19.7-16.16,21.44-16.95c0,0-12.47,12.69-14.59,14.55a56,56,0,0,0-6.95,7.14C68,159,64.83,162.89,64.35,164a19.44,19.44,0,0,0,6-3.81c5.68-5,2.14-3.3,7-6.51s5.57-5,7.74-7.38S89.85,140,91.83,139a107.37,107.37,0,0,1-6.32,8.84c-2,2.24-3.6,3.36-6.06,5.85s-8.15,10-8.58,11.57a17.23,17.23,0,0,0,6.28-3.64,95.18,95.18,0,0,0,7.1-6.38c2.38-2.15,6.53-5.9,7.69-7.21s5.29-6.69,7.21-6.8c0,0-6.72,7.65-9.17,10.77s-4.41,6.38-6.76,9.45-6.33,6.86-6.67,8.47c0,0,2.81-.06,7.56-4.37s5.22-4.72,8-7.4,7.31-7.49,7.31-7.49-5.73,6.29-8.16,9.33-3.83,4.92-5.16,6.54-2,2.8-2,3.6a21.12,21.12,0,0,0,5.46-3.94c3-2.89,5.11-5.66,8.07-9s5.74-6.65,8.25-8c0,0-2.73,4.49-4.39,6.66s-5.7,6.84-6.53,8.6a27.29,27.29,0,0,0-1.41,3.94s1.8-.69,4.71-4.5,21.17-16.93,24.09-17.41c0,0-5.29,5-7.87,9.24s-6.51,11.57-6.51,11.57,5-5.23,6.65-7,8.64-7.41,10.25-7.7c0,0-4.65,5.6-6.29,8a32.19,32.19,0,0,0-2.81,5.46s6.41-10,17.9-11.21C143.83,153.72,182.12,161.43,190.59,163.18Z" transform="translate(-37.42 100.22)"/><path class="cls-1" d="M195.56,159h-5S19,405.79,192.78,488.68l-.88-13.51S48.14,425.88,195.56,159Z" transform="translate(-37.42 100.22)"/><path class="cls-1" d="M190.64,163.65l-50.91-7S116,158.64,104.1,166.8s-17.28,14.83-17.28,14.83A24.16,24.16,0,0,1,95,178.76s-12.8,11.52-15.81,15.4-9.3,14.61-9.3,14.61A37.87,37.87,0,0,1,76.18,204s-8.73,12.78-8.5,22.38c0,0,3.18-5.18,5-7.47s6.81-8.95,7.83-11.12a22.68,22.68,0,0,1-1.66,6.92c-1.54,3.73-2.49,5.28-2.48,6.9a59.83,59.83,0,0,0,7.92-12.81c4.06-8.47,6.79-11.25,6.79-11.25s-2.88,13.81-5.33,20.27c0,0,6.41-3.42,8.62-10s2.19-10.22,3-12.71a40.55,40.55,0,0,1,5.75-10.43s-2.12,5.91-3.82,10.94-2.87,13.1-2.42,15.11c0,0,1.06-3,4-12.09s5.69-12.88,7-15.6c0,0-7.53,26.16-6.38,28.26,0,0,2.91-2.46,5-9.19S111.3,191.4,113.2,186a111,111,0,0,1,6.24-13.27s-4.37,11-5.47,15.09-4,13.88-2.64,16.31c0,0,1.94-2.55,6-11.53,3.8-8.31,4.15-9.76,5.52-12l.35-.56c1.68-2.61-5.25,13.27-5.06,17.28a55.28,55.28,0,0,0,9-11.63,71.14,71.14,0,0,0,4.87-10.48,47.19,47.19,0,0,0-1.3,8.92,30.76,30.76,0,0,1-1.27,7.76s2.32-1.27,4.92-9.31c0,0-1.43,8.09-2.13,9.33s3.36-4.5,6.12-13.84,4.5-10.77,4.5-10.77-3.53,16.88-4.85,20.13a4.31,4.31,0,0,1-.18.4c-1.13,1.86,3.69-4.06,6.25-9.94,0,0-1.07,7.55-2.47,9.24,0,0,9.56-9.51,11.45-14.58,0,0-1.59,10-3.16,10.85s6.74-2.34,10-7.41a50.61,50.61,0,0,0,4.06-7.11s-1,7.47-2.08,8.81,6.2-6.72,7.46-9.08-3.79,12.85-5.32,14.87c-1.34,1.77,21.23-14.6,26.84-18.68A.62.62,0,0,0,190.64,163.65Z" transform="translate(-37.42 100.22)"/><path class="cls-1" d="M191.64,163.6l-2.85-2.14-5.08-4.78s-8-6.69-13.34-10.94S136.31,119,130.59,114.79s-7.5-4.05-12.17-7.69-9-8.12-13.52-10.69-11.08-6.14-13.17-6.64a34.74,34.74,0,0,1-4-1.07s5,4.15,6.21,5.49c0,0-10.23-4.59-11.94-5.58A55.35,55.35,0,0,0,72.68,85s5.53,5.56,10.71,8c0,0-10.06-3.64-15.86-4.41s-8.69-.94-8.69-.94,5.51,4.77,10.87,6.26a77.61,77.61,0,0,0-11.2-.95A26.07,26.07,0,0,0,49,95.33a11.28,11.28,0,0,1,5.16.42,48.84,48.84,0,0,0,11.58,2,52.33,52.33,0,0,0,6.89-.39s-9.32,3-11.38,3.74-8,2.14-9.1,4.17a16.4,16.4,0,0,1,5.24-.28c3.41.25,27.95-4.71,27.95-4.71s-13.86,3.62-18.53,5.85-10,5.42-10,5.42S67.4,109,72.64,108.25s13.1-2.32,15.79-3.4,8.78-.78,8.78-.78-10.89,2.61-14,3.7-4.8,2-8.25,3-9.52,4-11.51,6.28c0,0,6.76-1.07,10.09-1.38s5.67-.35,9.5-1.9,11.64-5.17,14.3-5a86.24,86.24,0,0,0-8.18,4.11c-3.56,2.11-8.59,5.87-10,7.94,0,0,.91.84,10.68-2.49s9-3.06,13.24-4.86,6.1-2.87,8.17-2.08a29.65,29.65,0,0,0-5.83,3.18,54.73,54.73,0,0,1-6.73,5c-2.42,1.45-3.91,2.31-4.84,4.22,0,0,2.62.52,7-1.6s10.79-4.68,15.36-5a24,24,0,0,1,8.41.69,1.86,1.86,0,0,1,.31.14c.84.46-8.66,3.45-12.4,5.09s-7.34,3.25-8.26,4.87c0,0,3.84-.89,8.38-2.38s8.33-3.12,11-2.84A33.59,33.59,0,0,1,115.7,127a29.09,29.09,0,0,0-10.1,5.46s13.27-2,18.88-4.2a16.85,16.85,0,0,1,10.17-.76s-17.8,7.54-21.28,13.39l8.66-.75S137.54,137,143.75,137c0,0-2.89,2.64-2.87,4.81s.66,1.37.66,1.37l1.74-.91s2.22-2.47,8.05-.73,18.91,8.29,24.27,11.1S191.64,163.6,191.64,163.6Z" transform="translate(-37.42 100.22)"/><path class="cls-1" d="M191,164.51s8.77-.49,15,.67,22.14,4.24,36.6,16.22,20.06,19.69,20.51,20.37c.16.25,3.62,3.1,5.84,5.37a55,55,0,0,1,7.78,10.27c2.32,4.05,9.12,14.32,11,19s4.21,11.81,4.37,16.43c0,0-3-7.44-4.23-9.45,0,0,4,13.23,4.72,17.44a73.53,73.53,0,0,1,.95,13S291,263.6,289,260.62c0,0,1.39,8,1,12.25s-1.24,11.55-2,13.43a101.72,101.72,0,0,0-.81-14.95,145.66,145.66,0,0,0-3.1-15.78,62.08,62.08,0,0,0-1,6.43c-.37,3.69-1.63,11.56-1.41,13,0,0-.75-5.11-1-12.43a79.5,79.5,0,0,0-1.14-11.8c-.33-2.32-.77-8.41-.77-8.41s-.88,25.43-2.06,29.24A22.74,22.74,0,0,1,272.1,279s2.28-5.19,2.39-17.1-.37-11.15-1-15.21a53,53,0,0,0-3.9,7.72c-1.9,4.62-3.3,9.21-3.3,9.21s-.76-6.34,1.49-16.45,1.73-15,1.73-15-2,6.77-3.71,10.78a82,82,0,0,0-3.21,10.75s-1.12-3.31.22-9.59.77-6.44.77-6.44-3.78,9.15-6.12,11.87-.26-.29-.26-.29a51.39,51.39,0,0,1-.28-11.9c.62-6.31,1.31-16,1.31-16s-1.84,11.5-5.22,16.85c0,0,.56-16.09-1.43-19.3,0,0-6.44,15.75-5.63,20.43,0,0-2.18-1.42-2.58-7.67s.69-17,.69-17-3.46,8.51-3.29,10c0,0,.23-9.38.49-13.26.28-4.09-.09-10.52-1.05-12.17a72,72,0,0,0-2,8.56,87.42,87.42,0,0,1-1.78,10s.2-12.67-.46-15.64c0,0-1.14,7.62-3.6,11.82,0,0,.09-17.27-1.26-20.59,0,0-.87,5-2.63,6.33,0,0-.69-9.34-2.94-10.72,0,0,.42,8-1.17,11.46,0,0-4.29-16.71-7.16-19.37S191,164.51,191,164.51Z" transform="translate(-37.42 100.22)"/><path class="cls-1" d="M191.36,165.55a10.9,10.9,0,0,1,.46,2.87,31.12,31.12,0,0,1-3.62,9c-1.71,2.44-6.28,13.92-6.72,16.06a1.16,1.16,0,0,0,0,.27c0,1.12,2.81-2.81,5.47-5.27s6.2-6.75,6.85-8.57a21.1,21.1,0,0,1-2.64,7.8c-2.37,4.32-6,9.14-7.79,12.72s-3.1,7.07-3,7.76a88.6,88.6,0,0,1,6.27-6.83c2.58-2.37,3.74-3.4,4.94-5.81S195.4,189,195.4,189a20.28,20.28,0,0,1-3.13,10.26c-3.24,5.1-8.62,12.59-9.39,17.35a30.1,30.1,0,0,1,5.82-3.95s-5.75,10.9-7.47,12.48a41.73,41.73,0,0,0,8.09-6.06c1.79-1.9,9.78-6.77,9.78-6.77s-1.12,4-6,10.61-5.75,11.06-5.75,11.06a47.14,47.14,0,0,0,6.16-5.11c2.86-2.87,6.95-7.41,6.95-7.41s-2.35,5.51-4.33,7.77-5.6,5.81-7.46,10.11-4.31,9.91-5.66,11.22a9.48,9.48,0,0,0,5.56-3.32c2.64-3,5.22-6.45,6.78-8.2s3.14-3.5,3.14-3.5-3.21,5.94-4.78,8.23-5.65,9.59-6,11.76c0,0,1.66.19,5.77-4.26s4-4.57,6.62-7.75,4.37-5.42,7.18-7c0,0,.2,5.48-7.73,14s-11.28,11.3-12.62,13.82a33.86,33.86,0,0,0-2.24,5.7,21.62,21.62,0,0,0,5.15-4.13c3.19-3.19,9.19-9.23,10.46-11a13.55,13.55,0,0,1-2.27,4.9c-2.06,3.17-3.1,5.06-3.45,6.34a17.26,17.26,0,0,0-.39,3.19s1,.18,3.31-3.33a34.15,34.15,0,0,1,3.35-4.49,9.11,9.11,0,0,1-1.44,3.75c-1.38,2.35-5.77,8-6.14,10l-.36,2a4.9,4.9,0,0,0,3.81-1.44c1.71-1.71,3.93-3.5,5.3-6a35.48,35.48,0,0,0,2.41-6s.22,6.82-.47,10.34a32.64,32.64,0,0,1-2,6.69c-.46,1.09-2.2,6.34-2.71,7.5a19.12,19.12,0,0,0,7.55-7.5,42.11,42.11,0,0,0,4.64-13,38.51,38.51,0,0,0,1-8.16,124.44,124.44,0,0,1-.37,19.51s4.28-4.15,4.33-12.61-.32-13-.32-13,5.22,10.61,5.35,13.86c0,0,1.28-11.13,0-14.68-1.5-4.2-3.38-8.3-4.15-10.25-.6-1.53-2.74-8.16-2.74-8.16s4.74,5.86,6.91,10.86,4.35,11,4.35,11a33.21,33.21,0,0,0-.15-15.23s-4.91-14.41-6.88-16.44c0,0,8.07,5.41,11,13.28,0,0-2.45-9.58-9-16,0,0,12.67,5.38,16.54,11.5a33.68,33.68,0,0,0-8.52-15A195.54,195.54,0,0,1,215,202.46a38.78,38.78,0,0,1,9.55,7.64c3.88,4.54,10.6,11.59,12.78,13.09,0,0-7-14.29-13.14-19.53,0,0,8.95,6.15,13.85,12.8,0,0-3.13-7.93-7.76-12.51s-3.21-4.19-8.69-8.07-6.33-4.7-6.33-4.7a49.62,49.62,0,0,1,10.81,6.06c4.4,3.51,6.8,5.15,6.8,5.15s-6.89-7.06-9.24-9.14-8.2-6.78-8.2-6.78L229.62,195S201.6,170.14,191.36,165.55Z" transform="translate(-37.42 100.22)"/><path class="cls-1" d="M192.87,164.62l1.25.41.52.18s3-2.44,5.87-2.23,6.78,1.7,8.33,3.89,6.39,11.93,6.39,11.93S212.84,165,212,163.09c0,0,5.12,3.17,6.31,6.51a36.9,36.9,0,0,1,1.57,5.61s-.88-12.39-1.82-14.71c0,0,1.63.25,3,4.13s7.3,13.94,7.3,13.94a44.29,44.29,0,0,1-2.77-10.43c-.48-4.81-1-8.2-1-8.2s4.07,6,5.89,8.24,5.45,7.2,5.68,8.84c0,0,1.26-1.77.44-7.27s-.65-6-.65-6a25.23,25.23,0,0,1,5.49,8,56.86,56.86,0,0,1,3.36,9s1.66-11.19,1.49-16.09-.45-4-.45-4,8.35,16.76,8.6,22.83c0,0,4.06-9,2.11-17.34,0,0,7.1,13.4,7,23.75s.26,7.74.26,7.74,6-12,6.49-16.83a85.44,85.44,0,0,0,.44-8.69s3.9,7.93,3.93,13.79.16,10.86-.5,13.68-1.66,8.94-1.66,8.94,5.36-6.09,6.45-11,3.38-12.36,4.1-15.64c0,0,3,1.57,1.7,7.41s-2.64,15.84-2.62,19.17.3,8.18.3,8.18,2-1.79,3.26-6.61c1.12-4.36,2.3-8,2.77-9.62.05-.16.09-.31.12-.43.34-1.31.51,4.73.1,8.77s-.58,11.11.07,12c0,0,2.06-5.58,3.12-9.31s1.78-6.53,3-8.78a73.22,73.22,0,0,1-1.23,9.95c-1.09,5.81-2.5,16-.68,19.06,0,0,2.45-1.65,4.52-10.08s2.89-13.17,2.95-15.06c0,0,1.22,2.58.64,10.28s.18,13.93-.62,16.89c0,0,2.51-1.25,3.83-6.32s.83-6.47,1.6-7.63c0,0,4.11,19.23,1.82,25.78s-3.57,7.55-4.09,8.51,8.16-5.91,10.13-10.09c1.73-3.69,5.15-14.24,3-21.62a75.41,75.41,0,0,1-2.4-9.27s6.45,8.06,7.59,11.57c0,0,1.07-11.61-11.19-28.64,0,0,10.7,8.15,15.08,17,0,0-7.55-25-29.12-42.62,0,0,3.91,0,12.25,6,0,0-5.52-9.64-23.88-18.35s-23.52-9.49-40.87-9.89S192.87,164.62,192.87,164.62Z" transform="translate(-37.42 100.22)"/><path class="cls-1" d="M191.64,163.6a110.53,110.53,0,0,1,14.26-13.44c9.66-7.86,30.79-26.33,35.12-29s5.34-1.82,5.34-1.82-4.4,3.33-5.34,5.51a65.51,65.51,0,0,1,10.76-6.94c6.7-3.52,11.43-6.75,13.45-7.57a6.73,6.73,0,0,1,4.81-.15,83,83,0,0,0-9.76,6.21,49.81,49.81,0,0,1-4.74,3.6s1.34,1.07,6.21-2,6.46-4.31,11.44-5.41a32.27,32.27,0,0,1,10.73-.1,29.38,29.38,0,0,0-6.19,2.3c-2.05,1.26-6.39,3.7-6.67,4.07s5.86-1.4,11.27-2.12,11.13-.9,14.7.24c0,0-14.09,1.54-17.26,4.3,0,0,24.79,2.21,37.18,9.38s21.12,12.57,24.49,15.45c0,0-9.79-2.07-16.55-5.41s-17.35-6.79-20.18-6.65c0,0,8.86,10.29,15.1,15.55a50.19,50.19,0,0,0,11.92,7.6,52.74,52.74,0,0,1-14.92-5.79c-6.89-4.18-19.56-15.39-25.53-16.62,0,0,12.52,11.44,13.57,16.94,0,0-16.46-15.2-23.26-19.71s-8.44-5.13-8.44-5.13S289,146,290.81,150s4.27,12.3,4.27,12.3-6-9.44-11.48-15.31-15.72-13.55-15.72-13.55,16.36,17.23,19.36,24.52,3.23,8.47,3.23,8.47-16.39-23.87-24.66-30.66c0,0,12,15.43,14.84,21.95a131.32,131.32,0,0,1,5.14,14.78s-22.55-28.42-27.71-33-9.7-5.47-9.7-5.47,11.23,7.5,15.32,15.07,5.94,11.81,5.94,11.81-8-13.34-16.69-19.72S242.43,134,242.43,134s15,14.81,17.72,18.23a33,33,0,0,1,4.31,7.81s-23.11-14.9-26.67-16.39c0,0,9.2,10,10.51,12.88,0,0-8.82-6.76-17.53-7.83S191.64,163.6,191.64,163.6Z" transform="translate(-37.42 100.22)"/><path class="cls-1" d="M189.9,166.5l1.95-3.7s5.75-15.24,7.87-19.6,7.23-17.62,9-19.79c0,0,.53.26,1.65,2.36,0,0,2.37-6.2,4.41-10.7s2.93-3.77,3.23-6.69-.11-3.2-.11-3.2a4.23,4.23,0,0,1,1.2,3.11,25.87,25.87,0,0,0-.28,3.93c.1,1.11.16,3.78.16,3.78s1-6.21,1.89-9.44,2.54-7.69,3.9-9.57,1.94-2.55,1.94-2.55a30.92,30.92,0,0,0-1.71,6.43c-.31,2.84-1.59,7.95-1.23,8.63,0,0,.32-.86,2.59-5.66s3.74-8.76,6.33-11.58a19.45,19.45,0,0,0,3.76-7s-.86,6.25-2.65,9.95a40.82,40.82,0,0,0-2.72,7.82s4.93-9.88,8.39-14.09,8.55-6.89,9.6-9.31.87-3.28.87-3.28a28.34,28.34,0,0,1-2.9,11.55,43.11,43.11,0,0,1-4.53,7.52s6.82-4.12,9.82-8.62,4-8,6.29-10.6,4-4.93,6-5.88c0,0,.46,1.48-.62,4.2s-1.86,3.6-1.58,4.71a38,38,0,0,1,5.18-6.09c3-2.75,11.64-6,14.61-6.17a22.89,22.89,0,0,1,5.43.37s-6.49,2.76-7.91,4.18a17.51,17.51,0,0,1-5.17,3.89c-1.87.76-4.92,4.08-5.88,5.67a14,14,0,0,1,6.19-2.8c3.41-.49,5.83-.78,5.83-.78a77.42,77.42,0,0,0-6.37,4.5,19,19,0,0,1-6.89,3.56c-3.16,1-7.07,4.73-7.07,4.73a39.05,39.05,0,0,0,7.55-.46,27,27,0,0,1,9.14-.39s-7.84,1.73-9.81,3-10.09,4.09-11.87,5.19a19.25,19.25,0,0,0-3.83,3.75s1.87-.94,6.1,1.23a28.51,28.51,0,0,0-4.46,2.9c-1.16,1.13-13.75,5.64-13.75,5.64s6.72,1,8.94.23,2.62-1.37,2.62-1.37-2.5,4-4.34,4.6c-1.62.56-10.75,2.21-12.43,1.58,0,0,7.6,2.53,9.86,4a14.94,14.94,0,0,0-5.23-.14,25.73,25.73,0,0,0-3.94,1.29,80.87,80.87,0,0,1,10.81,2.12,27.44,27.44,0,0,1,5.19,2.15s-14-1.85-16.51-1.71-9.12,1.48-12.8,4c0,0,9.88-.6,17.29.62s7.69,1.38,7.69,1.38-17.59-.7-23.85,2.71-8.8,5.17-8.8,5.17,2.56-.67,4.85-1.5,5.41-2.23,8.61-1.08a22,22,0,0,0,3.44,1.11Z" transform="translate(-37.42 100.22)"/><path class="cls-1" d="M188.63,167.69l2.93-3.8s4.08-9.72,3.71-14.86c0,0,4.08-4.66,5.3-13.25s12.73-32.5,12.73-32.5-7.17,6.81-9.47,11.06c0,0,1.41-5.84,13.24-28.23,0,0-7.17,8.07-8.69,11.18a117.4,117.4,0,0,1,4-11.44c2-4.43,2.93-5.88,3.93-9.12s2.74-10.07,2.74-10.07-.8.11-2.66,2.89a72.07,72.07,0,0,0-4.82,8.93c-.54,1.34-2.94,6.46-2.94,6.46s1.95-6.45,4-15,1.59-11.86,1.59-11.86S211.59,65,210,67.48a7.69,7.69,0,0,1-3.85,3.11,31.06,31.06,0,0,1,.72-7.59c.86-3,2.16-5.36,1.93-9.07a37.81,37.81,0,0,0-1.71-8.1s-1.08,4.39-1.5,7.47a58.55,58.55,0,0,1-1.67,7.29s.8-10.09.06-15.05a56.78,56.78,0,0,0-2.23-9.19,68.81,68.81,0,0,1-.87,7.82,14.07,14.07,0,0,1-2.34,5.4,45,45,0,0,0-4-8.17c-2.56-4.06-6.37-10-8.61-11.7A54,54,0,0,0,179.8,26s4.22,7.11,4.7,10.17,3.62,10.37,3.62,10.37-6.08-4.44-8.9-5.66a36.48,36.48,0,0,0-5.2-1.82s8.31,7.46,9.9,8.65,4.54,3.8,4.54,3.8a59.66,59.66,0,0,0-7.72-2.49c-3.67-.84-6.35-1.33-7.19-1.13a2.38,2.38,0,0,0-1.1.47A28.56,28.56,0,0,1,178.22,50,21,21,0,0,1,183.59,54c.84.79,9.1,9,9.1,9a23.24,23.24,0,0,0-5.61-2.58c-2.75-.74-8.61-.12-8.61-.12a18.94,18.94,0,0,1,6.36,3.23c2.54,2.19,6.37,4.87,7.82,5.24,0,0-.37,3-4.66,1.52s-6.11-2.53-8-2.75a7.34,7.34,0,0,0-3.32.38s4.18,1.61,6,3.41A21.45,21.45,0,0,0,189.13,76c3.2,1.6,6.93,3,7.67,4.75,0,0-.1.42-4-.74s-9.1-2.23-9.1-2.23a48.12,48.12,0,0,1,6.76,4.17,19,19,0,0,1,3.94,4.13,12.78,12.78,0,0,0-4.15-2.24c-2.61-.85-3-.72-3-.72s6.31,3.67,7.82,6.79A18.15,18.15,0,0,1,196.77,94a47.85,47.85,0,0,0-6.8-3.56c-2.28-.76-5.11-1.42-5.11-1.42s4.42,5.25,5.19,7.2a14.13,14.13,0,0,0,3.42,5.29,32.21,32.21,0,0,0,3.12,2.45s-8.53-4.1-9.77-4.17c0,0,4.07,4.51,6.44,6.1,0,0-4.68-2.36-7.48-2.65s-3-.08-3-.08,4.36,2.19,5.24,3.17,4,6.76,5.36,7.67c0,0-10.37-4.45-12-4.52,0,0,7.45,8.33,9.06,10.65s-4.7,31.91-1.5,35.65S188.63,167.69,188.63,167.69Z" transform="translate(-37.42 100.22)"/><path class="cls-1" d="M178.32,485.54" transform="translate(-37.42 100.22)"/><path class="cls-1" d="M194.9,497.3" transform="translate(-37.42 100.22)"/></g><g id="R_and_Beach" data-name="R and Beach"><path class="cls-2" d="M190.22,412.88l9.8-6.25V299.75L191.71,294h18.43q12.24,0,19.06,6.68T236,319.29a38.16,38.16,0,0,1-4.08,18,25.77,25.77,0,0,1-11.38,11.45,22.71,22.71,0,0,1,12.91,9.69,31,31,0,0,1,4.74,17.34q0,16.17-9.06,26.64a28.94,28.94,0,0,1-22.86,10.47Zm12.39-3.05,4.24-.15a20.23,20.23,0,0,0,16.78-9q6.28-8.79,6.28-23.47,0-13.6-3.81-20.16t-11.64-6.56c-1.37,0-3.25.1-5.65.31a22,22,0,0,1-2.2.16Zm4.16-62.26c.36.05.89.1,1.57.15q3.14.24,4.08.24,7.83,0,12-7.19t4.12-21q0-11.64-4.44-17.18T210.45,297h-.31Z" transform="translate(-37.42 100.22)"/><path class="cls-2" d="M289.64,412.88l9.8-6.25V299.75L291.13,294h47.69l-9.18,23.52V297H309.56l-3.69,54.61h12.4l7.84-16v36.18L318,355.14H305.72L302,409.83h27.14l8.32-29.14v32.19Z" transform="translate(-37.42 100.22)"/><path class="cls-2" d="M454.17,412.88h-23.3l10.59-8L431,363.74H415.1l-5.26,49.14h-19l9.34-6.41,22.51-114.22,21.81,112.82Zm-23.93-52.34-10.43-40.79-4.4,40.79Z" transform="translate(-37.42 100.22)"/><path class="cls-2" d="M538.52,365.54h8.56q-.8,21.56-7.26,35T524.41,414q-9.1,0-15.5-16.83t-6.39-43.32q0-26.25,7-43.68t16.59-17.42a11.56,11.56,0,0,1,8.32,3.44q3.52,3.43,5.72,10.16L545.11,295V333q-3.76-19-8.47-28.13T526,295.77q-7.05,0-10.27,15.51t-3.22,50.58q0,26.17,2.86,37.46t9.38,11.29q6,0,9.92-9.76t3.88-25.39Z" transform="translate(-37.42 100.22)"/><path class="cls-2" d="M600.21,412.88l9.81-6.25V299.75L601.71,294h18.43l-3.53,57.82h25.73L646,294h13l-10.44,5.94v107.5l8,5.47H638.5l3.68-57.58H616.45l-3.84,57.58Z" transform="translate(-37.42 100.22)"/><text x="-37.42" y="100.22"/><text x="-37.42" y="100.22"/><text x="-37.42" y="100.22"/><path class="cls-2" d="M387,254.12l10.07-6.44V137.46l-8.54-6H407q13.29,0,21.51,9.83t8.22,25.86q0,13.29-6.49,23.16a33,33,0,0,1-17.6,13.58l19.25,42.46,10.07,7.73H417l11.36-8.38L403,205.3l-3.3,48.82ZM403.18,202a7.23,7.23,0,0,1,1,.08,9.44,9.44,0,0,0,1,.08q10.54,0,17-10.36t6.44-27.59q0-14.27-5.2-21.91t-14.94-7.66h-1Z" transform="translate(-37.42 100.22)"/><path class="cls-3" d="M521.54,144l-2.13,15.93a5.18,5.18,0,0,1,.78-.11c.33,0,.83,0,1.49,0a10.38,10.38,0,0,1,5.63,1.41,4.11,4.11,0,0,1,2.23,3.47c0,1.37-.83,2.54-2.48,3.51a11.83,11.83,0,0,1-6.09,1.45,11.39,11.39,0,0,1-6.09-1.45,4.34,4.34,0,0,1-2.34-3.79,3.82,3.82,0,0,1,.14-.89,12.4,12.4,0,0,1,.43-1.23Z" transform="translate(-37.42 100.22)"/><path class="cls-2" d="M547.36,254.11l8.85-5.66V151.6l-7.5-5.24h16.64l19.11,96.43,5.67-96.43h10.76l-8.28,5.52v97l7.85,5.23H583.19l-19-93.38-5.66,93.38Z" transform="translate(-37.42 100.22)"/><path class="cls-3" d="M627.85,171,630,154.92c-.42.05-.82.09-1.2.11l-1.13,0a10.36,10.36,0,0,1-5.63-1.41,4.09,4.09,0,0,1-2.23-3.47c0-1.37.81-2.54,2.44-3.51a11.91,11.91,0,0,1,6.13-1.45,11.51,11.51,0,0,1,6.05,1.45,4.24,4.24,0,0,1,2.37,3.65,4.48,4.48,0,0,1-.14,1.1,9.08,9.08,0,0,1-.43,1.17Z" transform="translate(-37.42 100.22)"/></g><g id="Sound_Wave" data-name="Sound Wave"><path class="cls-1" d="M710.44,491.52" transform="translate(-37.42 100.22)"/><path class="cls-1" d="M699.48,468.94" transform="translate(-37.42 100.22)"/><path class="cls-1" d="M391.87,554.85" transform="translate(-37.42 100.22)"/><path class="cls-1" d="M391.87,554.85" transform="translate(-37.42 100.22)"/><path class="cls-1" d="M196.36,473.52l-.07-2.49c2.39,1.31,2.83,2.79,2.83,2.79l1.75-4.53s2.34,8.63,5.18,10.73a5,5,0,0,0,1.81.16c.48-7.06.73-10.6,1.21-17.68,0,0,6.41,5.36,5.48,16.31,1-3.82,1.46-5.74,2.42-9.57-.13-3.94-.2-5.91-.33-9.86.76,2.73,1.14,4.09,1.89,6.81,1.08,4.25,1.61,6.38,2.69,10.63l1.24.4c.26-7,.39-10.44.64-17.4l2.17,10.7,3.68,2c.09,2.83.14,4.25.24,7.08l2.3-3.89.85-1.09c1,2.44,1.56,3.67,2.59,6.11.64-7.83,1-11.75,1.59-19.6l2.65,5.2c.05,1.35.08,2,.12,3.37l2.32,1.11c.09,2.44.13,3.65.22,6.09l1.17.8,1.1-1.19-.06-1.75,2.65,5c.72-6.46,1.08-9.7,1.79-16.18,0,0,4.71,3.23,5.35,13.85l1.32,3.78c2.19-1.21,1.91-19.73,1.91-19.73,4.2,5.35,6.35,16.22,6.35,16.22,2.12-.56,1.6-5.26,1.6-5.26,1.81,5,2.71,7.48,4.52,12.49l2.77.22c-.71-6.23,1.58-27.2,1.58-27.2s6.4,24.1,6.91,23.1c3.67-7.21,1.89-21.47,1.92-31.81q3.66,16.41,7.29,32.83.9-17.07,1.81-34.12c.73,10.1,1.1,15.16,1.83,25.28,0,0,1.26,9,4.65,9.58.89-4.34,1.34-6.51,2.24-10.87l2.3-5.13c1.16,4,1.74,6.06,2.89,10.11l.93,3.08,1,.79c.6-1.18.9-1.77,1.49-3-3.14-7.14,1.54-27.11,1.54-27.11q3.55,16,7.08,32l2.39-1.77c-.92-11.86,4.17-25.69,4.17-25.69,1.22,7.16,1.82,10.75,3,17.95,1.52,4.74,2.28,7.12,3.79,11.89,1.24-10.79,2.05-22.27,5.42-32.64l.35,1.58c.68,9.2,1.17,21.93,8.25,28.6,0,0,6.91-8.3,7.2-13.56.41-6,.61-9,1-15,1.21,6.73,1.82,10.1,3,16.87,1.5,4.95,2.25,7.44,3.75,12.43q2.31-22.1,4.61-44.18c2,13.6,4.86,27.59,4.92,41.37,1.58-5.52,2.37-8.3,3.95-13.89,4-6.6,2.21-26.28,2.21-26.28a281.09,281.09,0,0,1,6,30.4s4.91,13.81,6.15,12.69c5.64-5.09,4.24-23,4-33.07,2.76,9.21,4.13,13.86,6.89,23.22,1.37,2,2,3.05,3.42,5.1,2.56-2.68,3.84-4,6.4-6.77-.23-7.48-.35-11.22-.58-18.7,1.55,9.44,2.65,19.6,5.59,28.26,1.48,4.36,7.42-14.1,7.42-14.1l-1-32.81c1.75,10.49,2.62,15.76,4.36,26.36.54-1.45.8-2.18,1.33-3.64,1.54,7.66,2.31,11.5,3.85,19.24l1.47,1.2c2.5-2.3,3.75-3.47,6.25-5.83l.39-45.45q2.71,18.9,5.4,37.81s2.37,18.89,8.63,19.44q.75-29.69,1.48-59.35c1,17-.37,41.7,8.81,56.47a3.62,3.62,0,0,0,3.27,1.55l.75-59.93q3.18,23.47,6.31,47c.88,3.65,1.32,5.48,2.2,9.16,4.31,3.54,6-8,6-8,2.2-4,2.53-26.58,2.53-26.58,1.37,10.7,2.33,22,5.68,32.3,0,0,2.79,5.67,3.67,3.61,7.37-17.33,5.43-72.23,5.43-72.23s5.4,45.06,6,67.6c1.44-5.24,2.15-7.89,3.59-13.22l.45-31.29q3,27.32,6,54.65,1.35-17.13,2.68-34.26c.93,5.77,1.39,8.67,2.32,14.49.62,6.65.94,10,1.57,16.65l1,.91,2-.14c1-4.79,1.5-7.2,2.49-12q.45-14.76.89-29.53,3.54,16.05,7,32.09c5-13.25,1.23-30.54-1.19-44.07q4.56,17.25,9,34.53a285.6,285.6,0,0,0,5.89-44.25q2.1,15.07,4.17,30.16c1.74,10.68,2.62,16.06,4.37,26.9q2.07-19.62,4.08-39.26,4.57,18.06,9,36.14.54-20.82,1.07-41.64l2.79,44.95L575,478.2q3-33,5.93-66.12,4.07,30.75,8.08,61.5l1.55,1c.89-6.86,1.34-10.31,2.22-17.25l.51-29.44c1.27,1.87,1.9,2.81,3.17,4.7l2,37.82,1.95,2c1.16-6.44,1.73-9.68,2.88-16.22,1.12,7.31,1.68,11,2.8,18.37,2-3.16,3-4.76,4.94-8q0-27.1,0-54.22c2.54,20.53,4.06,41.76,8.86,61.9q.09-30.66.16-61.3c2.09,17.06,2.63,37.35,9.59,53.21.33-9.17.5-13.76.83-23,.35-4.43.52-6.65.87-11.11,2,11.91,3.51,24.26,7.12,35.81q1.06-19.53,2.1-39,5.69,20.65,11.21,41.36.6-15.49,1.19-31c4,11.38,8.12,23.12,9.9,35.1,1.66-9.23,2.48-13.89,4.12-23.32,1.1,7.41,1.66,11.13,2.77,18.61,1.36-4.13,2-6.21,3.4-10.42.74-2.7,1.1-4.06,1.84-6.8l1.4,8.76c.89,2.7,1.33,4.05,2.22,6.78,0-9.93,0-14.9,0-24.86,2.31,8.55,3.47,12.87,5.79,21.62-.35-6.19-.52-9.28-.87-15.46,0-7.39.07-11.08.11-18.49,1,9.22,1.55,13.85,2.59,23.15.93,4.21,1.4,6.32,2.33,10.57q.5-16.27,1-32.55c2.35,9.57,4.43,19.61,4.13,29.5l1.86-1.2c.13,4.36.2,6.54.34,10.9l-1.92-.63a130.5,130.5,0,0,1-2.29,30.43c-1-10.48-1.45-15.7-2.41-26.1L687,480.12c-.47,9.51-.71,14.25-1.19,23.68-1.46-9.74-2.18-14.58-3.64-24.2-1.83,1.53-2.74,2.29-4.58,3.8-1.55-1.62-2.32-2.43-3.87-4-.33,4.38-.49,6.57-.82,10.93-1.15-4.34-1.73-6.5-2.89-10.79-4.07,1.53-4.83,25.55-4.83,25.55a59.21,59.21,0,0,0-.93-11c-1.1-6.42-4.09-9-4.09-9-.28.66-.42,1-.71,1.65,0,11.89.56,24.65-2.65,36.29q-1.68-17.16-3.38-34.32c-.85,2.37-1.27,3.55-2.12,5.9-1.33-14.76-6.07.62-6.07.62-.48,10.34-.72,15.49-1.21,25.74q-1.39-17.64-2.81-35.29-1.4,16.47-2.83,32.94-.52-18.81-1-37.62c-4.33,10.46-4.93,34.83-4.93,34.83s-2.78-21-4.74-31.36l.21,53.06q-3.57-25.34-7.17-50.67A351.84,351.84,0,0,1,616,538.58l-1.55,2q-1.3-23-2.62-46c-2.38-3.45-3.57-5.15-5.94-8.52-.58,5.08-.87,7.6-1.45,12.64-1.49-6.25-2.23-9.35-3.72-15.5-.73.95-1.1,1.42-1.84,2.36l0,38c-1.16,2.14-1.75,3.2-2.91,5.31l-2-29.15c-1.24-6.72-1.86-10.06-3.1-16.7l-1.49,1.34q-2.4,31.35-4.87,62.68-4.62-32.31-9.31-64.63l-1.75,1.45c1.41,14.74-.75,29.69-2.81,44.24-1.47-9.49-2.2-14.21-3.66-23.58-1.62-8.22-2.43-12.29-4-20.39l-.27,41.22c-4.43-13.18-7-27-9-40.74q-.81,14.56-1.64,29.13-.19,17.43-.38,34.88c-1.91-15.11-3.1-30.77-6.78-45.57-.83.58-.52,1.74-.31,2.77,1.7,8.27-1.64,21.86-5.13,32.62L535.58,490q-3.14,18.27-6.36,36.52-1.22-14.64-2.42-29.27c-1.25-4.69-1.87-7-3.11-11.65l-2,.13-1,1c1.24,16.3-.85,27.07-.85,27.07-2.31,10.31-3.46,15.4-5.77,25.44q-4.39-23.31-8.9-46.59s1.37,18.52-.8,27.46q-1.31,15.35-2.64,30.7c-5.24-18.09-8.81-37.34-7.85-56.2l-4.46,1.72q-1.29,16.4-2.6,32.8l-1.29-.08-.6-22.06c-1.46-5-2.19-7.46-3.65-12.39L476,493.22c-1,4.61-1.53,6.91-2.55,11.47q-1.8,23.66-3.65,47.31-2.16-24.36-4.34-48.74L464,504.61l.09,3.22c-1.91-3.39-2.86-5.07-4.77-8.41q-1.15,25.8-2.32,51.6c-5-17.48-3.27-39.71-6.36-54.67-1.81-8.76-3.64,3.21-3.64,3.21q-1.4,25.7-2.82,51.39c-7.59-15.87-8.88-36.4-11.63-53.66a8.19,8.19,0,0,0-.69-4.44c-4.23,17.27-2.45,36.62-10.1,53q.38-18.08.74-36.15c-1.45-7.35-2.18-11-3.64-18.29,0,0-3.74,20.12-5.62,25.19-1.12,3-1.69,4.57-2.82,7.59q-1.39-14.69-2.82-29.37l-5-2.29L399.67,517c-.33.12-14.67-26.54-14.67-26.54-.27,0-2.41,31.33-2.43,47-1.59-5.72-2.38-8.56-4-14.23a334.79,334.79,0,0,1-8.17-32.75c-.72,5.95-1.08,8.92-1.8,14.84l-.51,32.94q-2.73-23.49-5.49-47c-.65,10.55-5.45,31.4-5.45,31.4s-4.37-21.5-7.75-31.64c-.82,7.5-1.24,11.24-2.06,18.69-2.61-1.24-5.61-18.87-5.61-18.87.06,11.07-1.27,22.26-2.68,33.22q-2.44-16.71-4.9-33.42l-3.72,1.22c-4.27,8.64-3.82,28.74-3.82,28.74-.84.46-8.85-18.24-9.14-27.15q-2.46,17.83-5,35.64c-3.54-12.86-4.14-26.6-4-39.89-1.48,2.44-2.23,3.65-3.71,6.06-1.44-1.5-2.17-6.89-2.17-6.89s-1.07,10.52-3.06,12.64c-.59-4.42-.88-6.63-1.47-11.05q-.72,18.11-1.43,36.22Q294.32,508,292,489.73c1.36,9.91-6.64,26-6.64,26q-1.79-14.6-3.59-29.19c1.18,10.07-5.81,27.07-5.81,27.07-1.43-11-2.15-16.49-3.58-27.45l-2.77-.1c-1.72,3.6-2.58,5.39-4.31,9-1.37-2.67-2.06-4-3.44-6.67-1.23,7.92-1.84,11.86-3.07,19.73-1.85-5.64-3.16-21.13-3.16-21.13-.5,1.88-.75,2.83-1.24,4.71l-2.17-3.94c-.51,3.63-.76,5.44-1.27,9.06-.38,3.23-.57,4.85-.94,8.07-1.19-6.6-1.79-9.9-3-16.48L244.69,493l-.06-1.75-1.19-1.35-1.12.64-2.31-.81c1,7.62-1.92,15.88-1.92,15.88-1.19-8-1.79-12-3-19.93l-2.18,5.75-2.27-4.58c-.09,1.37-.14,2.06-.23,3.42,0,0,.74,4.73-5.78,14.58-.89-8.49-1.33-12.74-2.22-21.22l-.85,3.83c-1.35,7-2,10.51-3.39,17.5,1.9-9.1-2.38-18.19-2.38-18.19-4.75,1.3-5.95,13.41-5.95,13.41l-2-18.36a5.2,5.2,0,0,0-1.8-.16s-4.12,2.31-4.55,6c0,0-1.8-5.91-1.57-3.24,0,0-.23,3.93-2.38,5-.42-1.76-.64-2.64-1.06-4.39-.58,1.58-.88,2.38-1.47,4-.77-1.52-1.16-2.28-1.94-3.8l-.35-11.07,1.12-3.11Z" transform="translate(-37.42 100.22)"/></g></svg>